<svg xmlns="http://www.w3.org/2000/svg" width="920" height="620" viewBox="0 0 920 620" fill="none">
  <defs>
    <linearGradient id="g1" x1="0" y1="0" x2="920" y2="620" gradientUnits="userSpaceOnUse">
      <stop stop-color="#10346D"/>
      <stop offset="1" stop-color="#2A73E0"/>
    </linearGradient>
    <linearGradient id="g2" x1="0" y1="0" x2="0" y2="1">
      <stop stop-color="#FFFFFF" stop-opacity="0.95"/>
      <stop offset="1" stop-color="#E9F0FF" stop-opacity="0.9"/>
    </linearGradient>
  </defs>

  <rect x="20" y="20" width="880" height="580" rx="28" fill="url(#g1)"/>
  <rect x="70" y="70" width="780" height="120" rx="20" fill="url(#g2)"/>
  <rect x="70" y="220" width="370" height="330" rx="20" fill="url(#g2)"/>
  <rect x="480" y="220" width="370" height="330" rx="20" fill="url(#g2)"/>

  <rect x="110" y="112" width="220" height="14" rx="7" fill="#C6DAFF"/>
  <rect x="110" y="138" width="170" height="12" rx="6" fill="#DCE8FF"/>

  <rect x="530" y="104" width="54" height="56" rx="12" fill="#1A56B1"/>
  <rect x="596" y="94" width="54" height="66" rx="12" fill="#2B6FD6"/>
  <rect x="662" y="118" width="54" height="42" rx="12" fill="#7AA8F5"/>

  <path d="M110 470C160 425 205 432 250 390C285 356 325 362 380 320" stroke="#1458BB" stroke-width="10" stroke-linecap="round"/>
  <circle cx="380" cy="320" r="10" fill="#FFD56A"/>

  <circle cx="600" cy="330" r="72" fill="#D5E4FF"/>
  <circle cx="600" cy="330" r="48" fill="#2A73E0"/>
  <circle cx="600" cy="330" r="22" fill="#FFFFFF"/>

  <rect x="680" y="286" width="120" height="14" rx="7" fill="#C6DAFF"/>
  <rect x="680" y="312" width="100" height="12" rx="6" fill="#DCE8FF"/>
  <rect x="680" y="338" width="130" height="12" rx="6" fill="#DCE8FF"/>

  <rect x="520" y="450" width="290" height="12" rx="6" fill="#DCE8FF"/>
  <rect x="520" y="474" width="250" height="12" rx="6" fill="#DCE8FF"/>
  <rect x="520" y="498" width="280" height="12" rx="6" fill="#DCE8FF"/>
</svg>
